<svg width="100%" height="100%" viewBox="0 0 24 24" fill="currentColor" xmlns="http://www.w3.org/2000/svg">
<path fill-rule="evenodd" clip-rule="evenodd" d="M17.3845 5.53839C17.6819 5.24104 18.1641 5.24106 18.4615 5.53844C18.7589 5.83585 18.7589 6.31807 18.4614 6.61545L13.076 11.9997L18.4615 17.3846C18.7589 17.6819 18.7589 18.1641 18.4615 18.4615C18.1641 18.7589 17.6819 18.7589 17.3846 18.4615L11.9997 13.076L6.61545 18.4614C6.31807 18.7589 5.83585 18.7589 5.53844 18.4615C5.24106 18.1641 5.24104 17.6819 5.53839 17.3845L10.9224 11.9997L5.53848 6.61547C5.24108 6.31807 5.24109 5.83589 5.53849 5.53849C5.83589 5.24109 6.31807 5.24108 6.61547 5.53848L11.9997 10.9224L17.3845 5.53839Z" fill="currentColor"/>
</svg>
